<?xml version="1.0" encoding="utf-8"?>
<!-- Generator: Adobe Illustrator 23.0.2, SVG Export Plug-In . SVG Version: 6.00 Build 0)  -->
<svg version="1.1" id="Layer_1" xmlns="http://www.w3.org/2000/svg" xmlns:xlink="http://www.w3.org/1999/xlink" x="0px" y="0px"
	 viewBox="0 0 1280 495" style="enable-background:new 0 0 1280 495;" xml:space="preserve">
<style type="text/css">
	.st0{fill:none;stroke:url(#SVGID_1_);stroke-width:2;stroke-miterlimit:10;}
	.st1{fill:none;stroke:url(#SVGID_2_);stroke-width:2;stroke-miterlimit:10;}
	.st2{fill:none;stroke:url(#SVGID_3_);stroke-width:2;stroke-miterlimit:10;}
	.st3{fill:none;stroke:url(#SVGID_4_);stroke-width:2;stroke-miterlimit:10;}
	.st4{display:none;fill:none;stroke:url(#SVGID_5_);stroke-width:2;stroke-miterlimit:10;}
	.st5{display:none;fill:none;stroke:url(#SVGID_6_);stroke-width:2;stroke-miterlimit:10;}
	.st6{display:none;fill:none;stroke:url(#SVGID_7_);stroke-width:2;stroke-miterlimit:10;}
	.st7{display:none;fill:none;stroke:url(#SVGID_8_);stroke-width:2;stroke-miterlimit:10;}
	.st8{display:none;}
	.st9{display:inline;stroke:#000000;stroke-miterlimit:10;}
</style>
			<defs>
      <!-- We set the filter effect area to be really big to guarantee we see it all... -->
      <!-- <filter id="white-glow" x="-5000%" y="-5000%" width="10000%" height="10000%">
          <feFlood result="flood" flood-color="#0f09" flood-opacity="1"></feFlood>
          <feComposite in="flood" result="mask" in2="SourceGraphic" operator="in"></feComposite>
          <feMorphology in="mask" result="dilated" operator="dilate" radius="2"></feMorphology>
          <feGaussianBlur in="dilated" result="blurred" stdDeviation="5"></feGaussianBlur>
          <feMerge>
              <feMergeNode in="blurred"></feMergeNode>
              <feMergeNode in="SourceGraphic"></feMergeNode>
          </feMerge>
      </filter> -->

      <!-- The only difference in this filter is its "flood-color" -->
      <!-- <filter id="purple-glow" x="-5000%" y="-5000%" width="10000%" height="10000%">
          <feFlood result="flood" flood-color="#7d26cd" flood-opacity="1"></feFlood>
          <feComposite in="flood" result="mask" in2="SourceGraphic" operator="in"></feComposite>
          <feMorphology in="mask" result="dilated" operator="dilate" radius="2"></feMorphology>
          <feGaussianBlur in="dilated" result="blurred" stdDeviation="5"></feGaussianBlur>
          <feMerge>
              <feMergeNode in="blurred"></feMergeNode>
              <feMergeNode in="SourceGraphic"></feMergeNode>
          </feMerge>
      </filter> -->
          <!-- We set the filter effect area to be really big to guarantee we see it all... -->
        <linearGradient id='lgrad' x1='50%' y1='100%' x2='50%' y2='0%' > 
    <stop offset='0%' style='stop-color:rgb(13, 150, 79);stop-opacity:1' />
    <!-- <stop offset='12%' style='stop-color:rgb(250,141,95);stop-opacity:1' />
    <stop offset='25%' style='stop-color:rgb(247,176,94);stop-opacity:1' />
    <stop offset='37%' style='stop-color:rgb(255,231,191);stop-opacity:1' />
    <stop offset='50%' style='stop-color:rgb(255,253,209);stop-opacity:1' />
    <stop offset='67%' style='stop-color:rgb(255,231,191);stop-opacity:1' />
    <stop offset='75%' style='stop-color:rgb(247,176,94);stop-opacity:1' />
    <stop offset='87%' style='stop-color:rgb(250,141,95);stop-opacity:1' /> -->
    <stop offset='100%' style='stop-color:rgb(47, 152, 205);stop-opacity:1' />
</linearGradient> 

    <rect filter="url(#green-blue-orangeGlow)" width='105%' height='80%'  y='10%' x='-5%' fill='url(#lgrad)' id='gradientRect'></rect>
  <filter  id='green-blue-orangeGlow' width='150%' height='150%' x='-25%' y='-25%'>
    <!--     Thicken out the original shape     -->
    <feMorphology  in='SourceAlpha' operator='dilate' radius='1.5' result='thickenR'></feMorphology>
 <feGaussianBlur  in='thickenR' result='blurredR' stdDeviation='10'></feGaussianBlur> 
 <feFlood result='floodR' flood-color='#ffffff'/>
 <feComposite in='floodR' in2='blurredR' operator='in' result='filledBlur'/>
 <feImage xlink:href="#gradientRect" result="gRectangle"/>
<feComposite  in='gRectangle' in2='filledBlur' operator='in' result='finalBlur'/>

    <feMerge>           
         <feMergeNode  in='finalBlur'></feMergeNode>
        <feMergeNode  in='SourceGraphic'></feMergeNode>
    <!--        <feMergeNode  in='softGlow_coloredO'></feMergeNode>  -->
    </feMerge>
</filter>

    </defs>
<linearGradient id="SVGID_1_" gradientUnits="userSpaceOnUse" x1="-707.3135" y1="806.5657" x2="-426.0668" y2="989.2094" gradientTransform="matrix(-0.7194 -0.6947 -0.6947 0.7194 618.7021 -787.132)">
	<stop  offset="0" style="stop-color:#00A945"/>
	<stop  offset="1" style="stop-color:#3498DB"/>
</linearGradient>
<rect filter="url(#green-blue-orangeGlow)"  x="282.4" y="132.2" transform="matrix(0.3746 -0.9272 0.9272 0.3746 17.7514 531.2003)" class="st0" width="240.4" height="240.4"/>
<linearGradient id="SVGID_2_" gradientUnits="userSpaceOnUse" x1="-729.442" y1="797.445" x2="-448.1953" y2="980.0888" gradientTransform="matrix(-0.7194 -0.6947 -0.6947 0.7194 603.3123 -772.6802)">
	<stop  offset="0" style="stop-color:#00A945"/>
	<stop  offset="1" style="stop-color:#3498DB"/>
</linearGradient>
<rect filter="url(#green-blue-orangeGlow)" x="289.3" y="155.5" transform="matrix(0.3746 -0.9272 0.9272 0.3746 0.4764 552.1144)" class="st1" width="240.4" height="240.4"/>
<linearGradient id="SVGID_3_" gradientUnits="userSpaceOnUse" x1="-659.2653" y1="841.3629" x2="-378.0186" y2="1024.0066" gradientTransform="matrix(-0.7194 -0.6947 -0.6947 0.7194 647.287 -830.9453)">
	<stop  offset="0" style="stop-color:#00A945"/>
	<stop  offset="1" style="stop-color:#3498DB"/>
</linearGradient>
<rect filter="url(#green-blue-orangeGlow)" x="252.3" y="80.1" transform="matrix(0.3746 -0.9272 0.9272 0.3746 47.2596 470.6353)" class="st2" width="240.4" height="240.4"/>
<linearGradient id="SVGID_4_" gradientUnits="userSpaceOnUse" x1="-681.4473" y1="832.3245" x2="-400.2006" y2="1014.9683" gradientTransform="matrix(-0.7194 -0.6947 -0.6947 0.7194 631.897 -816.4934)">
	<stop  offset="0" style="stop-color:#00A945"/>
	<stop  offset="1" style="stop-color:#3498DB"/>
</linearGradient>
<rect filter="url(#green-blue-orangeGlow)" x="259.1" y="103.4" transform="matrix(0.3746 -0.9272 0.9272 0.3746 29.8751 491.5727)" class="st3" width="240.4" height="240.4"/>
<linearGradient id="SVGID_5_" gradientUnits="userSpaceOnUse" x1="-457.3183" y1="-32.2961" x2="-176.0716" y2="150.3476" gradientTransform="matrix(-0.7194 -0.6947 -0.6947 0.7194 937.8118 173.9679)">
	<stop  offset="0" style="stop-color:#3D006A"/>
	<stop  offset="1" style="stop-color:#D40029"/>
</linearGradient>
<rect filter="url(#green-blue-orangeGlow)" x="1004.4" y="316.2" transform="matrix(0.3746 -0.9272 0.9272 0.3746 298.7045 1315.6925)" class="st4" width="240.4" height="240.4"/>
<linearGradient id="SVGID_6_" gradientUnits="userSpaceOnUse" x1="-479.4468" y1="-41.4167" x2="-198.2002" y2="141.2271" gradientTransform="matrix(-0.7194 -0.6947 -0.6947 0.7194 922.4219 188.4198)">
	<stop  offset="0" style="stop-color:#3D006A"/>
	<stop  offset="1" style="stop-color:#D40029"/>
</linearGradient>
<rect filter="url(#green-blue-orangeGlow)"  x="1011.3" y="339.5" transform="matrix(0.3746 -0.9272 0.9272 0.3746 281.4293 1336.6067)" class="st5" width="240.4" height="240.4"/>
<linearGradient id="SVGID_7_" gradientUnits="userSpaceOnUse" x1="-409.2701" y1="2.5012" x2="-128.0234" y2="185.1449" gradientTransform="matrix(-0.7194 -0.6947 -0.6947 0.7194 966.3967 130.1546)">
	<stop  offset="0" style="stop-color:#3D006A"/>
	<stop  offset="1" style="stop-color:#D40029"/>
</linearGradient>
<rect filter="url(#green-blue-orangeGlow)" x="974.3" y="264.1" transform="matrix(0.3746 -0.9272 0.9272 0.3746 328.2126 1255.1276)" class="st6" width="240.4" height="240.4"/>
<linearGradient id="SVGID_8_" gradientUnits="userSpaceOnUse" x1="-431.452" y1="-6.5372" x2="-150.2053" y2="176.1065" gradientTransform="matrix(-0.7194 -0.6947 -0.6947 0.7194 951.0067 144.6065)">
	<stop  offset="0" style="stop-color:#3D006A"/>
	<stop  offset="1" style="stop-color:#D40029"/>
</linearGradient>
<rect filter="url(#green-blue-orangeGlow)" x="981.1" y="287.4" transform="matrix(0.3746 -0.9272 0.9272 0.3746 310.8281 1276.0649)" class="st7" width="240.4" height="240.4"/>

<g>
	<g class="st8">
		<path class="st9" d="M303.3,222.2v-1.3l14.5-10.2v1.4l-13.2,9.3v0.2l13.2,9.3v1.4L303.3,222.2z"/>
		<path class="st9" d="M326,206.5h2l5.3,13.8l1.9,5.1h0.2l1.8-5.1l5.4-13.8h2v28.4h-1.4v-21.3c0-1.8,0.1-3.7,0.1-5.5h-0.1l-1.5,4.6
			l-5.8,14.6h-1.2l-5.8-14.6l-1.7-4.6h-0.1c0,1.8,0.2,3.7,0.2,5.5v21.3H326V206.5z"/>
		<path class="st9" d="M353,233.6h7.4v-26H353v-1.2h16.2v1.2h-7.4v26h7.4v1.2H353V233.6z"/>
		<path class="st9" d="M379.3,206.5h7.8c5.6,0,9.1,2.1,9.1,7.3c0,5-3.5,7.7-9.1,7.7h-6.4v13.4h-1.4V206.5z M386.6,220.2
			c5.2,0,8.2-2.1,8.2-6.5c0-4.5-2.9-6.1-8.2-6.1h-5.9v12.6H386.6z M388.3,220.9l8.3,13.9H395l-8.3-13.8L388.3,220.9z"/>
		<path class="st9" d="M412.1,206.5h1.2l10.1,28.4H422l-5.9-17c-1.2-3.4-2.2-6.4-3.3-9.9h-0.2c-1,3.5-2.1,6.4-3.3,9.9l-6,17h-1.4
			L412.1,206.5z M406.3,223.5h12.6v1.2h-12.6V223.5z"/>
		<path class="st9" d="M429.7,206.5h1.4l11.8,20.9l3.1,5.5h0.1c0-2.7-0.2-5.3-0.2-8v-18.4h1.3v28.4h-1.4L434,213.9l-3.1-5.5h-0.1
			c0,2.7,0.2,5.1,0.2,7.8v18.6h-1.3V206.5z"/>
		<path class="st9" d="M455.9,230.9l13.2-9.3v-0.2l-13.2-9.3v-1.4l14.5,10.2v1.3l-14.5,10.2V230.9z"/>
	</g>
</g>

<g>
	<g class="st8">
		<path class="st9" d="M303.3,222.2v-1.3l14.5-10.2v1.4l-13.2,9.3v0.2l13.2,9.3v1.4L303.3,222.2z"/>
		<path class="st9" d="M326,206.5h2l5.3,13.8l1.9,5.1h0.2l1.8-5.1l5.4-13.8h2v28.4h-1.4v-21.3c0-1.8,0.1-3.7,0.1-5.5h-0.1l-1.5,4.6
			l-5.8,14.6h-1.2l-5.8-14.6l-1.7-4.6h-0.1c0,1.8,0.2,3.7,0.2,5.5v21.3H326V206.5z"/>
		<path class="st9" d="M353,233.6h7.4v-26H353v-1.2h16.2v1.2h-7.4v26h7.4v1.2H353V233.6z"/>
		<path class="st9" d="M379.3,206.5h7.8c5.6,0,9.1,2.1,9.1,7.3c0,5-3.5,7.7-9.1,7.7h-6.4v13.4h-1.4V206.5z M386.6,220.2
			c5.2,0,8.2-2.1,8.2-6.5c0-4.5-2.9-6.1-8.2-6.1h-5.9v12.6H386.6z M388.3,220.9l8.3,13.9H395l-8.3-13.8L388.3,220.9z"/>
		<path class="st9" d="M412.1,206.5h1.2l10.1,28.4H422l-5.9-17c-1.2-3.4-2.2-6.4-3.3-9.9h-0.2c-1,3.5-2.1,6.4-3.3,9.9l-6,17h-1.4
			L412.1,206.5z M406.3,223.5h12.6v1.2h-12.6V223.5z"/>
		<path class="st9" d="M429.7,206.5h1.4l11.8,20.9l3.1,5.5h0.1c0-2.7-0.2-5.3-0.2-8v-18.4h1.3v28.4h-1.4L434,213.9l-3.1-5.5h-0.1
			c0,2.7,0.2,5.1,0.2,7.8v18.6h-1.3V206.5z"/>
		<path class="st9" d="M455.9,230.9l13.2-9.3v-0.2l-13.2-9.3v-1.4l14.5,10.2v1.3l-14.5,10.2V230.9z"/>
	</g>
</g>



</svg>
