<?xml version="1.0" encoding="utf-8"?>
<!-- Generator: Adobe Illustrator 23.0.2, SVG Export Plug-In . SVG Version: 6.00 Build 0)  -->
<svg version="1.1" id="Layer_1" xmlns="http://www.w3.org/2000/svg" xmlns:xlink="http://www.w3.org/1999/xlink" x="0px" y="0px"
	 viewBox="0 0 648 748" style="enable-background:new 0 0 648 748;" xml:space="preserve">
<style type="text/css">
	.st0{fill:none;stroke:url(#SVGID_1_);stroke-width:2;stroke-miterlimit:10;}
	.st1{fill:none;stroke:url(#SVGID_2_);stroke-width:2;stroke-miterlimit:10;}
	.st2{fill:none;stroke:url(#SVGID_3_);stroke-width:2;stroke-miterlimit:10;}
	.st3{fill:none;stroke:url(#SVGID_4_);stroke-width:2;stroke-miterlimit:10;}
	.st4{fill:none;stroke:url(#SVGID_5_);stroke-width:2;stroke-miterlimit:10;}
	.st5{fill:none;stroke:url(#SVGID_6_);stroke-width:2;stroke-miterlimit:10;}
	.st6{fill:none;stroke:url(#SVGID_7_);stroke-width:2;stroke-miterlimit:10;}
	.st7{fill:none;stroke:url(#SVGID_8_);stroke-width:2;stroke-miterlimit:10;}
</style>
<linearGradient id="SVGID_1_" gradientUnits="userSpaceOnUse" x1="107.05" y1="285.6755" x2="388.2967" y2="103.0318" gradientTransform="matrix(0.3746 -0.9272 0.9272 0.3746 -133.3282 399.2278)">
	<stop  offset="0" style="stop-color:#00A945"/>
	<stop  offset="1" style="stop-color:#3498DB"/>
</linearGradient>
<rect x="19.4" y="122.2" transform="matrix(0.3746 -0.9272 0.9272 0.3746 -137.4069 281.0771)" class="st0" width="240.4" height="240.4"/>
<linearGradient id="SVGID_2_" gradientUnits="userSpaceOnUse" x1="84.8969" y1="294.7583" x2="366.1436" y2="112.1145" gradientTransform="matrix(0.3746 -0.9272 0.9272 0.3746 -126.5958 398.5926)">
	<stop  offset="0" style="stop-color:#00A945"/>
	<stop  offset="1" style="stop-color:#3498DB"/>
</linearGradient>
<rect x="26.3" y="145.5" transform="matrix(0.3746 -0.9272 0.9272 0.3746 -154.7299 302.0092)" class="st1" width="240.4" height="240.4"/>
<linearGradient id="SVGID_3_" gradientUnits="userSpaceOnUse" x1="155.0643" y1="250.8261" x2="436.311" y2="68.1823" gradientTransform="matrix(0.3746 -0.9272 0.9272 0.3746 -149.1653 404.7021)">
	<stop  offset="0" style="stop-color:#00A945"/>
	<stop  offset="1" style="stop-color:#3498DB"/>
</linearGradient>
<rect x="-10.7" y="70.1" transform="matrix(0.3746 -0.9272 0.9272 0.3746 -107.9653 220.529)" class="st2" width="240.4" height="240.4"/>
<linearGradient id="SVGID_4_" gradientUnits="userSpaceOnUse" x1="132.9112" y1="259.9088" x2="414.1579" y2="77.2651" gradientTransform="matrix(0.3746 -0.9272 0.9272 0.3746 -142.4329 404.067)">
	<stop  offset="0" style="stop-color:#00A945"/>
	<stop  offset="1" style="stop-color:#3498DB"/>
</linearGradient>
<rect x="-3.9" y="93.4" transform="matrix(0.3746 -0.9272 0.9272 0.3746 -125.2883 241.4611)" class="st3" width="240.4" height="240.4"/>
<linearGradient id="SVGID_5_" gradientUnits="userSpaceOnUse" x1="-226.8341" y1="323.8441" x2="54.4127" y2="141.2003" gradientTransform="matrix(-0.9063 -0.4226 0.4226 -0.9063 323.252 806.6981)">
	<stop  offset="0" style="stop-color:#3D006A"/>
	<stop  offset="1" style="stop-color:#D40029"/>
</linearGradient>
<rect x="379.4" y="512.2" transform="matrix(0.4226 -0.9063 0.9063 0.4226 -284.6541 817.9744)" class="st4" width="240.4" height="240.4"/>
<linearGradient id="SVGID_6_" gradientUnits="userSpaceOnUse" x1="-248.9871" y1="332.9268" x2="32.2596" y2="150.2831" gradientTransform="matrix(-0.9063 -0.4226 0.4226 -0.9063 306.1911 828.8748)">
	<stop  offset="0" style="stop-color:#3D006A"/>
	<stop  offset="1" style="stop-color:#D40029"/>
</linearGradient>
<rect x="386.3" y="535.5" transform="matrix(0.4226 -0.9063 0.9063 0.4226 -301.8196 837.6444)" class="st5" width="240.4" height="240.4"/>
<linearGradient id="SVGID_7_" gradientUnits="userSpaceOnUse" x1="-178.8198" y1="288.9946" x2="102.4269" y2="106.3509" gradientTransform="matrix(-0.9063 -0.4226 0.4226 -0.9063 351.3334 743.3069)">
	<stop  offset="0" style="stop-color:#3D006A"/>
	<stop  offset="1" style="stop-color:#D40029"/>
</linearGradient>
<rect x="349.3" y="460.1" transform="matrix(0.4226 -0.9063 0.9063 0.4226 -254.8519 760.5572)" class="st6" width="240.4" height="240.4"/>
<linearGradient id="SVGID_8_" gradientUnits="userSpaceOnUse" x1="-200.9728" y1="298.0774" x2="80.2739" y2="115.4336" gradientTransform="matrix(-0.9063 -0.4226 0.4226 -0.9063 334.2725 765.4836)">
	<stop  offset="0" style="stop-color:#3D006A"/>
	<stop  offset="1" style="stop-color:#D40029"/>
</linearGradient>
<rect x="356.1" y="483.4" transform="matrix(0.4226 -0.9063 0.9063 0.4226 -272.0175 780.2272)" class="st7" width="240.4" height="240.4"/>
</svg>
