<?xml version="1.0" encoding="utf-8"?>
<!-- Generator: Adobe Illustrator 23.0.2, SVG Export Plug-In . SVG Version: 6.00 Build 0)  -->
<svg version="1.1" id="Layer_1" xmlns="http://www.w3.org/2000/svg" xmlns:xlink="http://www.w3.org/1999/xlink" x="0px" y="0px"
	 viewBox="0 0 1280 495" style="enable-background:new 0 0 1280 495;" xml:space="preserve">
<style type="text/css">
	.st0{fill:none;stroke:url(#SVGID_1_);stroke-width:2;stroke-miterlimit:10;}
	.st1{fill:none;stroke:url(#SVGID_2_);stroke-width:2;stroke-miterlimit:10;}
	.st2{fill:none;stroke:url(#SVGID_3_);stroke-width:2;stroke-miterlimit:10;}
	.st3{fill:none;stroke:url(#SVGID_4_);stroke-width:2;stroke-miterlimit:10;}
	.st4{fill:none;stroke:url(#SVGID_5_);stroke-width:2;stroke-miterlimit:10;}
	.st5{fill:none;stroke:url(#SVGID_6_);stroke-width:2;stroke-miterlimit:10;}
	.st6{fill:none;stroke:url(#SVGID_7_);stroke-width:2;stroke-miterlimit:10;}
	.st7{fill:none;stroke:url(#SVGID_8_);stroke-width:2;stroke-miterlimit:10;}
</style>
<linearGradient id="SVGID_1_" gradientUnits="userSpaceOnUse" x1="193.5902" y1="-91.0962" x2="474.8369" y2="-273.7399" gradientTransform="matrix(0.3746 -0.9272 0.9272 0.3746 296.5894 570.6081)">
	<stop  offset="0" style="stop-color:#00A945"/>
	<stop  offset="1" style="stop-color:#3498DB"/>
</linearGradient>
<rect x="132.4" y="72.2" transform="matrix(0.3746 -0.9272 0.9272 0.3746 -20.3783 354.5792)" class="st0" width="240.4" height="240.4"/>
<linearGradient id="SVGID_2_" gradientUnits="userSpaceOnUse" x1="171.4371" y1="-82.0134" x2="452.6838" y2="-264.6572" gradientTransform="matrix(0.3746 -0.9272 0.9272 0.3746 303.3219 569.973)">
	<stop  offset="0" style="stop-color:#00A945"/>
	<stop  offset="1" style="stop-color:#3498DB"/>
</linearGradient>
<rect x="139.3" y="95.5" transform="matrix(0.3746 -0.9272 0.9272 0.3746 -37.7013 375.5113)" class="st1" width="240.4" height="240.4"/>
<linearGradient id="SVGID_3_" gradientUnits="userSpaceOnUse" x1="241.6045" y1="-125.9456" x2="522.8512" y2="-308.5893" gradientTransform="matrix(0.3746 -0.9272 0.9272 0.3746 280.7524 576.0825)">
	<stop  offset="0" style="stop-color:#00A945"/>
	<stop  offset="1" style="stop-color:#3498DB"/>
</linearGradient>
<rect x="102.3" y="20.1" transform="matrix(0.3746 -0.9272 0.9272 0.3746 9.0633 294.0311)" class="st2" width="240.4" height="240.4"/>
<linearGradient id="SVGID_4_" gradientUnits="userSpaceOnUse" x1="219.4514" y1="-116.8628" x2="500.6981" y2="-299.5066" gradientTransform="matrix(0.3746 -0.9272 0.9272 0.3746 287.4848 575.4473)">
	<stop  offset="0" style="stop-color:#00A945"/>
	<stop  offset="1" style="stop-color:#3498DB"/>
</linearGradient>
<rect x="109.1" y="43.4" transform="matrix(0.3746 -0.9272 0.9272 0.3746 -8.2597 314.9632)" class="st3" width="240.4" height="240.4"/>
<linearGradient id="SVGID_5_" gradientUnits="userSpaceOnUse" x1="294.0158" y1="808.812" x2="575.2625" y2="626.1683" gradientTransform="matrix(0.3746 -0.9272 0.9272 0.3746 296.5894 570.6081)">
	<stop  offset="0" style="stop-color:#3D006A"/>
	<stop  offset="1" style="stop-color:#D40029"/>
</linearGradient>
<rect x="1004.4" y="316.2" transform="matrix(0.3746 -0.9272 0.9272 0.3746 298.7314 1315.6791)" class="st4" width="240.4" height="240.4"/>
<linearGradient id="SVGID_6_" gradientUnits="userSpaceOnUse" x1="271.8627" y1="817.8948" x2="553.1094" y2="635.251" gradientTransform="matrix(0.3746 -0.9272 0.9272 0.3746 303.3219 569.973)">
	<stop  offset="0" style="stop-color:#3D006A"/>
	<stop  offset="1" style="stop-color:#D40029"/>
</linearGradient>
<rect x="1011.3" y="339.5" transform="matrix(0.3746 -0.9272 0.9272 0.3746 281.4084 1336.6112)" class="st5" width="240.4" height="240.4"/>
<linearGradient id="SVGID_7_" gradientUnits="userSpaceOnUse" x1="342.0301" y1="773.9626" x2="623.2768" y2="591.3188" gradientTransform="matrix(0.3746 -0.9272 0.9272 0.3746 280.7524 576.0825)">
	<stop  offset="0" style="stop-color:#3D006A"/>
	<stop  offset="1" style="stop-color:#D40029"/>
</linearGradient>
<rect x="974.3" y="264.1" transform="matrix(0.3746 -0.9272 0.9272 0.3746 328.173 1255.131)" class="st6" width="240.4" height="240.4"/>
<linearGradient id="SVGID_8_" gradientUnits="userSpaceOnUse" x1="319.877" y1="783.0453" x2="601.1237" y2="600.4016" gradientTransform="matrix(0.3746 -0.9272 0.9272 0.3746 287.4848 575.4473)">
	<stop  offset="0" style="stop-color:#3D006A"/>
	<stop  offset="1" style="stop-color:#D40029"/>
</linearGradient>
<rect x="981.1" y="287.4" transform="matrix(0.3746 -0.9272 0.9272 0.3746 310.85 1276.0631)" class="st7" width="240.4" height="240.4"/>
</svg>
